<?xml version="1.0" encoding="iso-8859-1"?>
<!-- Generator: Adobe Illustrator 19.0.0, SVG Export Plug-In . SVG Version: 6.00 Build 0)  -->
<svg version="1.1" id="Capa_1" xmlns="http://www.w3.org/2000/svg" xmlns:xlink="http://www.w3.org/1999/xlink" x="0px" y="0px"
	 viewBox="0 0 512 512" style="enable-background:new 0 0 512 512;" xml:space="preserve">
<circle style="fill:#91E0E8;" cx="261.5" cy="267" r="245"/>
<rect x="151.54" y="404.36" style="fill:#445EA0;" width="110.99" height="39.735"/>
<rect x="151.54" y="404.36" style="fill:#2E4C89;" width="19.843" height="39.735"/>
<g>
	<path style="fill:#293D7C;" d="M322.035,443.094H91.181c10.624,10.278,22.174,19.604,34.515,27.838h196.34c2.75,0,5-2.25,5-5
		v-17.838C327.035,445.344,324.785,443.094,322.035,443.094z"/>
	<path style="fill:#293D7C;" d="M307.988,265.83c-2.55,0-4.636-2.086-4.636-4.636V104.25H10.5c-2.75,0-5,2.25-5,5v291.109
		c0,2.75,2.25,5,5,5h394c2.75,0,5-2.25,5-5V265.83H307.988z"/>
</g>
<path style="fill:#1A2B63;" d="M25.343,400.359V109.25c0-2.75,2.25-5,5-5H10.5c-2.75,0-5,2.25-5,5v291.109c0,2.75,2.25,5,5,5h19.843
	C27.593,405.359,25.343,403.109,25.343,400.359z"/>
<path style="fill:#52BBEF;" d="M307.988,265.83c-2.55,0-4.636-2.086-4.636-4.636V129.25H33.5c-1.65,0-3,1.35-3,3v239.109
	c0,1.65,1.35,3,3,3h348c1.65,0,3-1.35,3-3V265.83H307.988z"/>
<path style="fill:#AEC1ED;" d="M33.5,129.25c-1.65,0-3,1.35-3,3v239.109c0,1.65,1.35,3,3,3h35V129.25H33.5z"/>
<g>
	<path style="fill:#FFFFFF;" d="M303.353,129.25H33.5c-1.65,0-3,1.35-3,3v22.62h272.853V129.25z"/>
	<path style="fill:#FFFFFF;" d="M59,183.5c0,1.1-0.9,2-2,2H41.125c-1.1,0-2-0.9-2-2v-11c0-1.1,0.9-2,2-2H57c1.1,0,2,0.9,2,2V183.5z"
		/>
	<path style="fill:#FFFFFF;" d="M59,208.343c0,1.1-0.9,2-2,2H41.125c-1.1,0-2-0.9-2-2v-11c0-1.1,0.9-2,2-2H57c1.1,0,2,0.9,2,2
		V208.343z"/>
	<path style="fill:#FFFFFF;" d="M59,233.186c0,1.1-0.9,2-2,2H41.125c-1.1,0-2-0.9-2-2v-11c0-1.1,0.9-2,2-2H57c1.1,0,2,0.9,2,2
		V233.186z"/>
	<path style="fill:#FFFFFF;" d="M59,258.029c0,1.1-0.9,2-2,2H41.125c-1.1,0-2-0.9-2-2v-11c0-1.1,0.9-2,2-2H57c1.1,0,2,0.9,2,2
		V258.029z"/>
	<path style="fill:#FFFFFF;" d="M59,282.871c0,1.1-0.9,2-2,2H41.125c-1.1,0-2-0.9-2-2v-11c0-1.1,0.9-2,2-2H57c1.1,0,2,0.9,2,2
		V282.871z"/>
	<path style="fill:#FFFFFF;" d="M59,307.714c0,1.1-0.9,2-2,2H41.125c-1.1,0-2-0.9-2-2v-11c0-1.1,0.9-2,2-2H57c1.1,0,2,0.9,2,2
		V307.714z"/>
	<path style="fill:#FFFFFF;" d="M59,332.557c0,1.1-0.9,2-2,2H41.125c-1.1,0-2-0.9-2-2v-11c0-1.1,0.9-2,2-2H57c1.1,0,2,0.9,2,2
		V332.557z"/>
	<path style="fill:#FFFFFF;" d="M59,357.399c0,1.1-0.9,2-2,2H41.125c-1.1,0-2-0.9-2-2v-11c0-1.1,0.9-2,2-2H57c1.1,0,2,0.9,2,2
		V357.399z"/>
</g>
<g>
	<path style="fill:#1E99D6;" d="M138.125,183.5c0,1.1-0.9,2-2,2h-55c-1.1,0-2-0.9-2-2v-11c0-1.1,0.9-2,2-2h55c1.1,0,2,0.9,2,2V183.5
		z"/>
	<path style="fill:#1E99D6;" d="M188.666,208.343c0,1.1-0.9,2-2,2H81.125c-1.1,0-2-0.9-2-2v-11c0-1.1,0.9-2,2-2h105.541
		c1.1,0,2,0.9,2,2V208.343z"/>
	<path style="fill:#1E99D6;" d="M272.616,208.343c0,1.1-0.9,2-2,2h-55.543c-1.1,0-2-0.9-2-2v-11c0-1.1,0.9-2,2-2h55.543
		c1.1,0,2,0.9,2,2V208.343z"/>
	<path style="fill:#1E99D6;" d="M303.353,220.186H139.668c-1.1,0-2,0.9-2,2v11c0,1.1,0.9,2,2,2h163.685V220.186z"/>
	<path style="fill:#1E99D6;" d="M115.17,258.029c0,1.1-0.9,2-2,2H81.125c-1.1,0-2-0.9-2-2v-11c0-1.1,0.9-2,2-2h32.045
		c1.1,0,2,0.9,2,2V258.029z"/>
	<path style="fill:#1E99D6;" d="M194.166,258.029c0,1.1-0.9,2-2,2h-32.045c-1.1,0-2-0.9-2-2v-11c0-1.1,0.9-2,2-2h32.045
		c1.1,0,2,0.9,2,2V258.029z"/>
	<path style="fill:#1E99D6;" d="M236.164,258.029c0,1.1-0.9,2-2,2h-32.045c-1.1,0-2-0.9-2-2v-11c0-1.1,0.9-2,2-2h32.045
		c1.1,0,2,0.9,2,2V258.029z"/>
	<path style="fill:#1E99D6;" d="M278.162,258.029c0,1.1-0.9,2-2,2h-32.045c-1.1,0-2-0.9-2-2v-11c0-1.1,0.9-2,2-2h32.045
		c1.1,0,2,0.9,2,2V258.029z"/>
	<path style="fill:#1E99D6;" d="M137.668,282.871c0,1.1-0.9,2-2,2H81.125c-1.1,0-2-0.9-2-2v-11c0-1.1,0.9-2,2-2h54.543
		c1.1,0,2,0.9,2,2V282.871z"/>
	<path style="fill:#1E99D6;" d="M240.663,282.871c0,1.1-0.9,2-2,2h-88.542c-1.1,0-2-0.9-2-2v-11c0-1.1,0.9-2,2-2h88.542
		c1.1,0,2,0.9,2,2V282.871z"/>
	<path style="fill:#1E99D6;" d="M347.125,307.714c0,1.1-0.9,2-2,2h-264c-1.1,0-2-0.9-2-2v-11c0-1.1,0.9-2,2-2h264c1.1,0,2,0.9,2,2
		V307.714z"/>
	<path style="fill:#1E99D6;" d="M190.125,332.557c0,1.1-0.9,2-2,2h-107c-1.1,0-2-0.9-2-2v-11c0-1.1,0.9-2,2-2h107c1.1,0,2,0.9,2,2
		V332.557z"/>
	<path style="fill:#1E99D6;" d="M347.125,332.557c0,1.1-0.9,2-2,2h-56c-1.1,0-2-0.9-2-2v-11c0-1.1,0.9-2,2-2h56c1.1,0,2,0.9,2,2
		V332.557z"/>
	<path style="fill:#1E99D6;" d="M266.125,332.557c0,1.1-0.9,2-2,2h-56c-1.1,0-2-0.9-2-2v-11c0-1.1,0.9-2,2-2h56c1.1,0,2,0.9,2,2
		V332.557z"/>
	<path style="fill:#1E99D6;" d="M347.125,357.399c0,1.1-0.9,2-2,2h-264c-1.1,0-2-0.9-2-2v-11c0-1.1,0.9-2,2-2h264c1.1,0,2,0.9,2,2
		V357.399z"/>
	<path style="fill:#1E99D6;" d="M240.125,183.5c0,1.1-0.9,2-2,2h-82c-1.1,0-2-0.9-2-2v-11c0-1.1,0.9-2,2-2h82c1.1,0,2,0.9,2,2V183.5
		z"/>
	<path style="fill:#1E99D6;" d="M278.125,183.5c0,1.1-0.9,2-2,2h-28c-1.1,0-2-0.9-2-2v-11c0-1.1,0.9-2,2-2h28c1.1,0,2,0.9,2,2V183.5
		z"/>
	<path style="fill:#1E99D6;" d="M303.353,170.5h-16.228c-1.1,0-2,0.9-2,2v11c0,1.1,0.9,2,2,2h16.228V170.5z"/>
</g>
<rect x="302.35" y="37.14" style="fill:#D9EAFC;" width="178.15" height="136.31"/>
<rect x="302.35" y="37.14" style="fill:#AEC1ED;" width="19.843" height="136.31"/>
<path style="fill:#293D7C;" d="M475.864,0H306.988c-2.55,0-4.636,2.086-4.636,4.636v33.5H480.5v-33.5
	C480.5,2.086,478.414,0,475.864,0z"/>
<path style="fill:#1A2B63;" d="M326.831,0h-19.843c-2.55,0-4.636,2.086-4.636,4.636v33.5h19.843v-33.5
	C322.195,2.086,324.281,0,326.831,0z"/>
<path style="fill:#AEC1ED;" d="M302.353,172.448v89.747c0,2.55,2.086,4.636,4.636,4.636h168.876c2.55,0,4.636-2.086,4.636-4.636
	v-89.747H302.353z"/>
<path style="fill:#85A0DD;" d="M322.195,262.194v-89.747h-19.843v89.747c0,2.55,2.086,4.636,4.636,4.636h19.843
	C324.281,266.83,322.195,264.744,322.195,262.194z"/>
<path style="fill:#5DC1D8;" d="M393.277,97.108c0,2.75-2.25,5-5,5H322.19c-2.75,0-5-2.25-5-5v-42.97c0-2.75,2.25-5,5-5h66.088
	c2.75,0,5,2.25,5,5v42.97H393.277z"/>
<path style="fill:#28A5A5;" d="M337.032,97.108v-42.97c0-2.75,2.25-5,5-5H322.19c-2.75,0-5,2.25-5,5v42.97c0,2.75,2.25,5,5,5h19.843
	C339.282,102.108,337.032,99.858,337.032,97.108z"/>
<path style="fill:#D9EAFC;" d="M339.307,26.043h-15.762c-4.143,0-7.5-3.358-7.5-7.5s3.357-7.5,7.5-7.5h15.762
	c4.143,0,7.5,3.358,7.5,7.5S343.449,26.043,339.307,26.043z"/>
<g>
	<path style="fill:#5DC1D8;" d="M460.512,102.376H409.42c-4.143,0-7.5-3.358-7.5-7.5s3.357-7.5,7.5-7.5h51.092
		c4.143,0,7.5,3.358,7.5,7.5S464.654,102.376,460.512,102.376z"/>
	<path style="fill:#5DC1D8;" d="M460.512,82.777H409.42c-4.143,0-7.5-3.358-7.5-7.5s3.357-7.5,7.5-7.5h51.092
		c4.143,0,7.5,3.358,7.5,7.5C468.012,79.419,464.654,82.777,460.512,82.777z"/>
	<path style="fill:#5DC1D8;" d="M460.512,63.178H409.42c-4.143,0-7.5-3.358-7.5-7.5s3.357-7.5,7.5-7.5h51.092
		c4.143,0,7.5,3.358,7.5,7.5S464.654,63.178,460.512,63.178z"/>
</g>
<g>
	<path style="fill:#FFFFFF;" d="M422.126,154.769c0,2.75,2.25,5,5,5h32.094c2.75,0,5-2.25,5-5v-36.944c0-2.75-2.25-5-5-5h-32.094
		c-2.75,0-5,2.25-5,5V154.769z"/>
	<path style="fill:#FFFFFF;" d="M408.767,162.641h-21.423c-4.143,0-7.5-3.358-7.5-7.5s3.357-7.5,7.5-7.5h21.423
		c4.143,0,7.5,3.358,7.5,7.5S412.909,162.641,408.767,162.641z"/>
	<path style="fill:#FFFFFF;" d="M408.767,144.741h-21.423c-4.143,0-7.5-3.358-7.5-7.5s3.357-7.5,7.5-7.5h21.423
		c4.143,0,7.5,3.358,7.5,7.5S412.909,144.741,408.767,144.741z"/>
	<path style="fill:#FFFFFF;" d="M408.767,126.842h-21.423c-4.143,0-7.5-3.358-7.5-7.5s3.357-7.5,7.5-7.5h21.423
		c4.143,0,7.5,3.358,7.5,7.5S412.909,126.842,408.767,126.842z"/>
	<path style="fill:#FFFFFF;" d="M367.973,162.641h-21.424c-4.142,0-7.5-3.358-7.5-7.5s3.358-7.5,7.5-7.5h21.424
		c4.143,0,7.5,3.358,7.5,7.5S372.115,162.641,367.973,162.641z"/>
	<path style="fill:#FFFFFF;" d="M367.973,144.741h-21.424c-4.142,0-7.5-3.358-7.5-7.5s3.358-7.5,7.5-7.5h21.424
		c4.143,0,7.5,3.358,7.5,7.5S372.115,144.741,367.973,144.741z"/>
	<path style="fill:#FFFFFF;" d="M367.973,126.842h-21.424c-4.142,0-7.5-3.358-7.5-7.5s3.358-7.5,7.5-7.5h21.424
		c4.143,0,7.5,3.358,7.5,7.5S372.115,126.842,367.973,126.842z"/>
	<path style="fill:#FFFFFF;" d="M327.178,162.641h-4.944c-4.143,0-7.5-3.358-7.5-7.5s3.357-7.5,7.5-7.5h4.944
		c4.143,0,7.5,3.358,7.5,7.5S331.32,162.641,327.178,162.641z"/>
	<path style="fill:#FFFFFF;" d="M327.178,144.741h-4.944c-4.143,0-7.5-3.358-7.5-7.5s3.357-7.5,7.5-7.5h4.944
		c4.143,0,7.5,3.358,7.5,7.5S331.32,144.741,327.178,144.741z"/>
	<path style="fill:#FFFFFF;" d="M327.178,126.842h-4.944c-4.143,0-7.5-3.358-7.5-7.5s3.357-7.5,7.5-7.5h4.944
		c4.143,0,7.5,3.358,7.5,7.5S331.32,126.842,327.178,126.842z"/>
</g>
<g>
	<path style="fill:#445EA0;" d="M349.255,246.083h-23.277c-4.143,0-7.5-3.358-7.5-7.5s3.357-7.5,7.5-7.5h23.277
		c4.143,0,7.5,3.358,7.5,7.5C356.755,242.725,353.397,246.083,349.255,246.083z"/>
	<path style="fill:#445EA0;" d="M349.255,223.702h-23.277c-4.143,0-7.5-3.358-7.5-7.5s3.357-7.5,7.5-7.5h23.277
		c4.143,0,7.5,3.358,7.5,7.5S353.397,223.702,349.255,223.702z"/>
	<path style="fill:#445EA0;" d="M349.255,201.321h-23.277c-4.143,0-7.5-3.358-7.5-7.5s3.357-7.5,7.5-7.5h23.277
		c4.143,0,7.5,3.358,7.5,7.5S353.397,201.321,349.255,201.321z"/>
	<path style="fill:#445EA0;" d="M460.512,246.083h-23.277c-4.143,0-7.5-3.358-7.5-7.5s3.357-7.5,7.5-7.5h23.277
		c4.143,0,7.5,3.358,7.5,7.5C468.012,242.725,464.654,246.083,460.512,246.083z"/>
	<path style="fill:#445EA0;" d="M429.297,223.702h-9.678c-4.143,0-7.5-3.358-7.5-7.5s3.357-7.5,7.5-7.5h9.678
		c4.143,0,7.5,3.358,7.5,7.5S433.44,223.702,429.297,223.702z"/>
	<path style="fill:#445EA0;" d="M458.966,223.702h-9.679c-4.143,0-7.5-3.358-7.5-7.5s3.357-7.5,7.5-7.5h9.679
		c4.143,0,7.5,3.358,7.5,7.5S463.108,223.702,458.966,223.702z"/>
	<path style="fill:#445EA0;" d="M460.512,201.321h-23.277c-4.143,0-7.5-3.358-7.5-7.5s3.357-7.5,7.5-7.5h23.277
		c4.143,0,7.5,3.358,7.5,7.5S464.654,201.321,460.512,201.321z"/>
	<path style="fill:#445EA0;" d="M416.935,201.321h-23.277c-4.143,0-7.5-3.358-7.5-7.5s3.357-7.5,7.5-7.5h23.277
		c4.143,0,7.5,3.358,7.5,7.5S421.078,201.321,416.935,201.321z"/>
	<path style="fill:#445EA0;" d="M418.382,246.083h-50.683c-4.143,0-7.5-3.358-7.5-7.5s3.357-7.5,7.5-7.5h50.683
		c4.143,0,7.5,3.358,7.5,7.5C425.882,242.725,422.524,246.083,418.382,246.083z"/>
	<path style="fill:#445EA0;" d="M399.84,223.702h-32.141c-4.143,0-7.5-3.358-7.5-7.5s3.357-7.5,7.5-7.5h32.141
		c4.143,0,7.5,3.358,7.5,7.5S403.982,223.702,399.84,223.702z"/>
	<path style="fill:#445EA0;" d="M375.734,201.321h-8.035c-4.143,0-7.5-3.358-7.5-7.5s3.357-7.5,7.5-7.5h8.035
		c4.143,0,7.5,3.358,7.5,7.5S379.877,201.321,375.734,201.321z"/>
</g>
<g>
</g>
<g>
</g>
<g>
</g>
<g>
</g>
<g>
</g>
<g>
</g>
<g>
</g>
<g>
</g>
<g>
</g>
<g>
</g>
<g>
</g>
<g>
</g>
<g>
</g>
<g>
</g>
<g>
</g>
</svg>
